Coordinates
version=1
nRows=12
nColumns=24
inDegrees=yes

Units are S.I. units (second, meters, Newtons, ...)
Angles are in degrees.

endheader
time	pelvis_tilt	pelvis_list	pelvis_rotation	pelvis_tx	pelvis_ty	pelvis_tz	hip_flexion_r	hip_adduction_r	hip_rotation_r	knee_angle_r	ankle_angle_r	subtalar_angle_r	mtp_angle_r	hip_flexion_l	hip_adduction_l	hip_rotation_l	knee_angle_l	ankle_angle_l	subtalar_angle_l	mtp_angle_l	lumbar_extension	lumbar_bending	lumbar_rotation
      0.72900000	      2.50554539	      4.42198866	     -0.71845394	     -0.46746339	      1.02400242	      0.26874031	      8.48654477	     -0.72001027	     -1.72068378	    -16.91358747	      3.86586565	     -8.74854053	     12.64301677	     13.03210620	      3.10538675	     -8.14902224	    -64.56769595	     -0.71521132	    -16.70144910	      3.67703194	     -7.25617235	     -5.23720092	      5.26730516
      0.73316667	      2.49108104	      4.56186646	     -0.86416540	     -0.46254108	      1.02485070	      0.26897890	      8.05892489	     -0.86902441	     -1.65991298	    -16.61737246	      4.00448140	     -8.56902363	     12.65138798	     13.54156962	      3.24675506	     -8.23913295	    -64.18341631	     -0.58861045	    -16.83939836	      3.60860108	     -7.25923306	     -5.39308740	      5.57397953
      0.73733333	      2.46061240	      4.69675402	     -1.02027672	     -0.45759360	      1.02562064	      0.26921005	      7.65139128	     -1.01536684	     -1.59606059	    -16.32216807	      4.09382265	     -8.42052528	     12.65801762	     14.05162832	      3.37724278	     -8.33898775	    -63.74334258	     -0.41392834	    -16.89091446	      3.57046131	     -7.22425631	     -5.53721651	      5.76616317
      0.74150000	      2.42882313	      4.83177331	     -1.17921688	     -0.45266198	      1.02633724	      0.26942271	      7.25428878	     -1.16722416	     -1.54711693	    -16.04576062	      4.27798791	     -8.19394156	     12.67239912	     14.55206986	      3.51200042	     -8.42832756	    -63.24230928	     -0.29953123	    -16.89269537	      3.50486216	     -7.20151910	     -5.68364661	      6.14677031
      0.74566667	      2.41369176	      4.96083651	     -1.34315567	     -0.44770859	      1.02707111	      0.26962437	      6.82699589	     -1.31523587	     -1.49110570	    -15.73786122	      4.35479073	     -8.02946977	     12.68235473	     15.01195316	      3.63951257	     -8.51585330	    -62.67092234	     -0.15500871	    -16.82677396	      3.47194301	     -7.18792336	     -5.81446085	      6.33721273
      0.74983333	      2.37516334	      5.09156943	     -1.51338220	     -0.44275245	      1.02769520	      0.26982756	      6.43573743	     -1.46730154	     -1.44216607	    -15.45145450	      4.47095444	     -7.82593404	     12.69505580	     15.48595521	      3.76138595	     -8.61594699	    -62.05136465	     -0.01600838	    -16.69529788	      3.44476123	     -7.15169737	     -5.96513257	      6.59846143
      0.75400000	      2.34375237	      5.19340522	     -1.68503929	     -0.43779116	      1.02828824	      0.27000800	      6.03171783	     -1.59224410	     -1.40510953	    -15.15247796	      4.59416963	     -7.60778421	     12.71087370	     15.93755063	      3.85313204	     -8.70145179	    -61.38545001	      0.12644029	    -16.50855989	      3.42220089	     -7.11955134	     -6.07092885	      6.90105037
      0.75816667	      2.31434498	      5.29856243	     -1.85706319	     -0.43282190	      1.02883232	      0.27017761	      5.62544223	     -1.72303978	     -1.36331959	    -14.85341999	      4.70180606	     -7.40388658	     12.72594612	     16.37008398	      3.94643792	     -8.78747074	    -60.66172576	      0.25848547	    -16.28812899	      3.41138041	     -7.09037454	     -6.18557769	      7.15314834
      0.76233333	      2.27675439	      5.38504255	     -2.03508528	     -0.42785598	      1.02929015	      0.27034408	      5.23162918	     -1.83645001	     -1.33507526	    -14.55928961	      4.86314496	     -7.15151733	     12.75150666	     16.80082720	      4.01511823	     -8.87291421	    -59.90367242	      0.41273219	    -16.00681147	      3.40630391	     -7.05513275	     -6.28162138	      7.51272209
      0.76650000	      2.25202579	      5.47596309	     -2.21760886	     -0.42287966	      1.02973795	      0.27049745	      4.82456281	     -1.95821497	     -1.30433509	    -14.26343820	      4.97937363	     -6.92728071	     12.77615771	     17.19453885	      4.08982530	     -8.95679377	    -59.07699635	      0.54392233	    -15.69779816	      3.41438388	     -7.02959515	     -6.37649627	      7.78408119
      0.77066667	      2.22209161	      5.56267654	     -2.40382798	     -0.41790201	      1.03013159	      0.27063796	      4.42563679	     -2.07784826	     -1.27062647	    -13.96877909	      5.05342019	     -6.72702013	     12.79387599	     17.57542466	      4.16001332	     -9.03732020	    -58.19454742	      0.65615244	    -15.35454194	      3.42984746	     -6.99666208	     -6.46520505	      7.99794137
      0.77483333	      2.19829585	      5.61406876	     -2.58476864	     -0.41291883	      1.03044635	      0.27077473	      4.01378659	     -2.15988115	     -1.24425908	    -13.66785999	      5.20776855	     -6.48158347	     12.82324553	     17.94022373	      4.18498638	     -9.11160033	    -57.29454181	      0.81095661	    -14.96228009	      3.46535698	     -6.97357839	     -6.51353108	      8.33791115
